name rise42.5664peak47.7979fall81.9185.mot
datacolumns 19
datarows 33
range 16.20660200000000 16.25994500000000
endheader
time	ground_force1_vx	ground_force1_vy	ground_force1_vz	ground_force1_px	ground_force1_py	ground_force1_pz	ground_force2_vx	ground_force2_vy	ground_force2_vz	ground_force2_px	ground_force2_py	ground_force2_pz	ground_torque1_x	ground_torque1_y	ground_torque1_z	ground_torque2_x	ground_torque2_y	ground_torque2_z	
16.20660200000000	60.63637700000000	816.71281999999997	55.14650600000000	0.28821500000000	0.00000000000000	0.10895600000000	0.00000000000000	0.00000000000000	0.00000000000000	0.00000000000000	0.00000000000000	0.00000000000000	0.00000000000000	18.17696200000000	0.00000000000000	0.00000000000000	0.00000000000000	0.00000000000000	
16.20827400000000	59.65744900000000	816.89877100000001	55.16560000000000	0.28700800000000	0.00000000000000	0.10901300000000	0.00000000000000	0.00000000000000	0.00000000000000	0.00000000000000	0.00000000000000	0.00000000000000	0.00000000000000	18.23778600000000	0.00000000000000	0.00000000000000	0.00000000000000	0.00000000000000	
16.20994100000000	58.68147400000000	816.90405899999996	55.17377500000000	0.28582100000000	0.00000000000000	0.10907000000000	0.00000000000000	0.00000000000000	0.00000000000000	0.00000000000000	0.00000000000000	0.00000000000000	0.00000000000000	18.29449400000000	0.00000000000000	0.00000000000000	0.00000000000000	0.00000000000000	
16.21160300000000	57.70967200000000	816.73237300000005	55.17109900000000	0.28465600000000	0.00000000000000	0.10912700000000	0.00000000000000	0.00000000000000	0.00000000000000	0.00000000000000	0.00000000000000	0.00000000000000	0.00000000000000	18.34698400000000	0.00000000000000	0.00000000000000	0.00000000000000	0.00000000000000	
16.21327400000000	56.74318600000000	816.38765599999999	55.15762100000000	0.28351000000000	0.00000000000000	0.10918500000000	0.00000000000000	0.00000000000000	0.00000000000000	0.00000000000000	0.00000000000000	0.00000000000000	0.00000000000000	18.39514600000000	0.00000000000000	0.00000000000000	0.00000000000000	0.00000000000000	
16.21493900000000	55.78308200000000	815.87410399999999	55.13337800000000	0.28238200000000	0.00000000000000	0.10924300000000	0.00000000000000	0.00000000000000	0.00000000000000	0.00000000000000	0.00000000000000	0.00000000000000	0.00000000000000	18.43886400000000	0.00000000000000	0.00000000000000	0.00000000000000	0.00000000000000	
16.21660700000000	54.83035300000000	815.19615499999998	55.09839500000000	0.28127300000000	0.00000000000000	0.10930100000000	0.00000000000000	0.00000000000000	0.00000000000000	0.00000000000000	0.00000000000000	0.00000000000000	0.00000000000000	18.47801600000000	0.00000000000000	0.00000000000000	0.00000000000000	0.00000000000000	
16.21826900000000	53.88591900000000	814.35848699999997	55.05268800000000	0.28018100000000	0.00000000000000	0.10935900000000	0.00000000000000	0.00000000000000	0.00000000000000	0.00000000000000	0.00000000000000	0.00000000000000	0.00000000000000	18.51247600000000	0.00000000000000	0.00000000000000	0.00000000000000	0.00000000000000	
16.21994600000000	52.95062600000000	813.36600799999997	54.99627200000000	0.27910500000000	0.00000000000000	0.10941700000000	0.00000000000000	0.00000000000000	0.00000000000000	0.00000000000000	0.00000000000000	0.00000000000000	0.00000000000000	18.54211700000000	0.00000000000000	0.00000000000000	0.00000000000000	0.00000000000000	
16.22160000000000	52.02525100000000	812.22384499999998	54.92915800000000	0.27804500000000	0.00000000000000	0.10947600000000	0.00000000000000	0.00000000000000	0.00000000000000	0.00000000000000	0.00000000000000	0.00000000000000	0.00000000000000	18.56681600000000	0.00000000000000	0.00000000000000	0.00000000000000	0.00000000000000	
16.22327400000000	51.11050200000000	810.93734099999995	54.85135800000000	0.27699800000000	0.00000000000000	0.10953500000000	0.00000000000000	0.00000000000000	0.00000000000000	0.00000000000000	0.00000000000000	0.00000000000000	0.00000000000000	18.58645000000000	0.00000000000000	0.00000000000000	0.00000000000000	0.00000000000000	
16.22494300000000	50.20702100000000	809.51203399999997	54.76289200000000	0.27596300000000	0.00000000000000	0.10959400000000	0.00000000000000	0.00000000000000	0.00000000000000	0.00000000000000	0.00000000000000	0.00000000000000	0.00000000000000	18.60090300000000	0.00000000000000	0.00000000000000	0.00000000000000	0.00000000000000	
16.22660400000000	49.31538600000000	807.95365400000003	54.66378600000000	0.27494100000000	0.00000000000000	0.10965400000000	0.00000000000000	0.00000000000000	0.00000000000000	0.00000000000000	0.00000000000000	0.00000000000000	0.00000000000000	18.61006400000000	0.00000000000000	0.00000000000000	0.00000000000000	0.00000000000000	
16.22827200000000	48.43611200000000	806.26810599999999	54.55407700000000	0.27392800000000	0.00000000000000	0.10971300000000	0.00000000000000	0.00000000000000	0.00000000000000	0.00000000000000	0.00000000000000	0.00000000000000	0.00000000000000	18.61383400000000	0.00000000000000	0.00000000000000	0.00000000000000	0.00000000000000	
16.22994800000000	47.56965600000000	804.46145899999999	54.43381600000000	0.27292400000000	0.00000000000000	0.10977300000000	0.00000000000000	0.00000000000000	0.00000000000000	0.00000000000000	0.00000000000000	0.00000000000000	0.00000000000000	18.61212100000000	0.00000000000000	0.00000000000000	0.00000000000000	0.00000000000000	
16.23160000000000	46.71641600000000	802.53992900000003	54.30307000000000	0.27192900000000	0.00000000000000	0.10983300000000	0.00000000000000	0.00000000000000	0.00000000000000	0.00000000000000	0.00000000000000	0.00000000000000	0.00000000000000	18.60484800000000	0.00000000000000	0.00000000000000	0.00000000000000	0.00000000000000	
16.23326800000000	45.87673800000000	800.50986599999999	54.16192500000000	0.27093900000000	0.00000000000000	0.10989400000000	0.00000000000000	0.00000000000000	0.00000000000000	0.00000000000000	0.00000000000000	0.00000000000000	0.00000000000000	18.59195200000000	0.00000000000000	0.00000000000000	0.00000000000000	0.00000000000000	
16.23493800000000	45.05091700000000	798.37774100000001	54.01048700000000	0.26995500000000	0.00000000000000	0.10995400000000	0.00000000000000	0.00000000000000	0.00000000000000	0.00000000000000	0.00000000000000	0.00000000000000	0.00000000000000	18.57338200000000	0.00000000000000	0.00000000000000	0.00000000000000	0.00000000000000	
16.23660500000000	44.23919700000000	796.15012600000000	53.84888600000000	0.26897400000000	0.00000000000000	0.11001500000000	0.00000000000000	0.00000000000000	0.00000000000000	0.00000000000000	0.00000000000000	0.00000000000000	0.00000000000000	18.54910500000000	0.00000000000000	0.00000000000000	0.00000000000000	0.00000000000000	
16.23827500000000	43.44177800000000	793.83367899999996	53.67727500000000	0.26799600000000	0.00000000000000	0.11007700000000	0.00000000000000	0.00000000000000	0.00000000000000	0.00000000000000	0.00000000000000	0.00000000000000	0.00000000000000	18.51910800000000	0.00000000000000	0.00000000000000	0.00000000000000	0.00000000000000	
16.23994800000000	42.65881800000000	791.43512999999996	53.49583500000000	0.26701900000000	0.00000000000000	0.11013800000000	0.00000000000000	0.00000000000000	0.00000000000000	0.00000000000000	0.00000000000000	0.00000000000000	0.00000000000000	18.48339200000000	0.00000000000000	0.00000000000000	0.00000000000000	0.00000000000000	
16.24160500000000	41.89043200000000	788.96126000000004	53.30477300000000	0.26604300000000	0.00000000000000	0.11020000000000	0.00000000000000	0.00000000000000	0.00000000000000	0.00000000000000	0.00000000000000	0.00000000000000	0.00000000000000	18.44198000000000	0.00000000000000	0.00000000000000	0.00000000000000	0.00000000000000	
16.24327000000000	41.13669900000000	786.41889000000003	53.10432500000000	0.26506500000000	0.00000000000000	0.11026200000000	0.00000000000000	0.00000000000000	0.00000000000000	0.00000000000000	0.00000000000000	0.00000000000000	0.00000000000000	18.39491500000000	0.00000000000000	0.00000000000000	0.00000000000000	0.00000000000000	
16.24495100000000	40.39766200000000	783.81485699999996	52.89475800000000	0.26408500000000	0.00000000000000	0.11032400000000	0.00000000000000	0.00000000000000	0.00000000000000	0.00000000000000	0.00000000000000	0.00000000000000	0.00000000000000	18.34225900000000	0.00000000000000	0.00000000000000	0.00000000000000	0.00000000000000	
16.24660400000000	39.67333300000000	781.15599999999995	52.67636400000000	0.26310300000000	0.00000000000000	0.11038700000000	0.00000000000000	0.00000000000000	0.00000000000000	0.00000000000000	0.00000000000000	0.00000000000000	0.00000000000000	18.28409700000000	0.00000000000000	0.00000000000000	0.00000000000000	0.00000000000000	
16.24826900000000	38.96369200000000	778.44914600000004	52.44947000000000	0.26211600000000	0.00000000000000	0.11044900000000	0.00000000000000	0.00000000000000	0.00000000000000	0.00000000000000	0.00000000000000	0.00000000000000	0.00000000000000	18.22053300000000	0.00000000000000	0.00000000000000	0.00000000000000	0.00000000000000	
16.24994200000000	38.26869400000000	775.70108800000003	52.21442900000000	0.26112500000000	0.00000000000000	0.11051200000000	0.00000000000000	0.00000000000000	0.00000000000000	0.00000000000000	0.00000000000000	0.00000000000000	0.00000000000000	18.15169100000000	0.00000000000000	0.00000000000000	0.00000000000000	0.00000000000000	
16.25160300000000	37.58826600000000	772.91857000000005	51.97162500000000	0.26012800000000	0.00000000000000	0.11057500000000	0.00000000000000	0.00000000000000	0.00000000000000	0.00000000000000	0.00000000000000	0.00000000000000	0.00000000000000	18.07772000000000	0.00000000000000	0.00000000000000	0.00000000000000	0.00000000000000	
16.25326700000000	36.92231300000000	770.10827200000006	51.72147200000000	0.25912500000000	0.00000000000000	0.11063900000000	0.00000000000000	0.00000000000000	0.00000000000000	0.00000000000000	0.00000000000000	0.00000000000000	0.00000000000000	17.99878500000000	0.00000000000000	0.00000000000000	0.00000000000000	0.00000000000000	
16.25496200000000	36.27071900000000	767.27679400000000	51.46441000000000	0.25811500000000	0.00000000000000	0.11070200000000	0.00000000000000	0.00000000000000	0.00000000000000	0.00000000000000	0.00000000000000	0.00000000000000	0.00000000000000	17.91507400000000	0.00000000000000	0.00000000000000	0.00000000000000	0.00000000000000	
16.25660600000000	35.63334800000000	764.43063800000004	51.20090600000000	0.25709800000000	0.00000000000000	0.11076500000000	0.00000000000000	0.00000000000000	0.00000000000000	0.00000000000000	0.00000000000000	0.00000000000000	0.00000000000000	17.82679300000000	0.00000000000000	0.00000000000000	0.00000000000000	0.00000000000000	
16.25826700000000	35.01004600000000	761.57619399999999	50.93145400000000	0.25607400000000	0.00000000000000	0.11082900000000	0.00000000000000	0.00000000000000	0.00000000000000	0.00000000000000	0.00000000000000	0.00000000000000	0.00000000000000	17.73416600000000	0.00000000000000	0.00000000000000	0.00000000000000	0.00000000000000	
16.25994500000000	34.40064300000000	758.71972700000003	50.65656900000000	0.25504100000000	0.00000000000000	0.11089200000000	0.00000000000000	0.00000000000000	0.00000000000000	0.00000000000000	0.00000000000000	0.00000000000000	0.00000000000000	17.63743500000000	0.00000000000000	0.00000000000000	0.00000000000000	0.00000000000000	
